<?xml version="1.0" encoding="UTF-8" standalone="no"?><svg xmlns="http://www.w3.org/2000/svg" xmlns:xlink="http://www.w3.org/1999/xlink" contentScriptType="application/ecmascript" contentStyleType="text/css" height="324px" preserveAspectRatio="none" style="width:548px;height:324px;background:#FFFFFF;" version="1.1" viewBox="0 0 548 324" width="548px" zoomAndPan="magnify"><defs><filter height="300%" id="f19cp57obyqu2y" width="300%" x="-1" y="-1"><feGaussianBlur result="blurOut" stdDeviation="2.0"/><feColorMatrix in="blurOut" result="blurOut2" type="matrix" values="0 0 0 0 0 0 0 0 0 0 0 0 0 0 0 0 0 0 .4 0"/><feOffset dx="4.0" dy="4.0" in="blurOut2" result="blurOut3"/><feBlend in="SourceGraphic" in2="blurOut3" mode="normal"/></filter></defs><g><!--MD5=[eeac6d26af6e255ad00712f50927ffda]
cluster Cliente--><polygon fill="#FFFFFF" filter="url(#f19cp57obyqu2y)" points="16,124,77,124,84,146.2969,185,146.2969,185,274,16,274,16,124" style="stroke:#000000;stroke-width:1.5;"/><line style="stroke:#000000;stroke-width:1.5;" x1="16" x2="84" y1="146.2969" y2="146.2969"/><text fill="#000000" font-family="sans-serif" font-size="14" font-weight="bold" lengthAdjust="spacing" textLength="55" x="20" y="138.9951">Cliente</text><!--MD5=[a02a2c85d289fdf60e396b79d01ab1db]
cluster Advogado--><polygon fill="#FFFFFF" filter="url(#f19cp57obyqu2y)" points="321.5,6,406.5,6,413.5,28.2969,531.5,28.2969,531.5,97,321.5,97,321.5,6" style="stroke:#000000;stroke-width:1.5;"/><line style="stroke:#000000;stroke-width:1.5;" x1="321.5" x2="413.5" y1="28.2969" y2="28.2969"/><text fill="#000000" font-family="sans-serif" font-size="14" font-weight="bold" lengthAdjust="spacing" textLength="79" x="325.5" y="20.9951">Advogado</text><!--MD5=[945b1f9c868be3f3aea08e0aec430894]
cluster Pergunta--><polygon fill="#FFFFFF" filter="url(#f19cp57obyqu2y)" points="329.5,121,407.5,121,414.5,143.2969,523.5,143.2969,523.5,210,329.5,210,329.5,121" style="stroke:#000000;stroke-width:1.5;"/><line style="stroke:#000000;stroke-width:1.5;" x1="329.5" x2="414.5" y1="143.2969" y2="143.2969"/><text fill="#000000" font-family="sans-serif" font-size="14" font-weight="bold" lengthAdjust="spacing" textLength="72" x="333.5" y="135.9951">Pergunta</text><!--MD5=[52e11059ea0351adc87fd0021461bf5b]
cluster Sala--><polygon fill="#FFFFFF" filter="url(#f19cp57obyqu2y)" points="343,234,381,234,388,256.2969,510,256.2969,510,317,343,317,343,234" style="stroke:#000000;stroke-width:1.5;"/><line style="stroke:#000000;stroke-width:1.5;" x1="343" x2="388" y1="256.2969" y2="256.2969"/><text fill="#000000" font-family="sans-serif" font-size="14" font-weight="bold" lengthAdjust="spacing" textLength="32" x="347" y="248.9951">Sala</text><ellipse cx="100.2655" cy="175.0531" fill="#FEFECE" filter="url(#f19cp57obyqu2y)" rx="65.7655" ry="15.5531" style="stroke:#A80036;stroke-width:1.5;"/><text fill="#000000" font-family="sans-serif" font-size="14" lengthAdjust="spacing" textLength="81" x="56.7655" y="178.8007">Criar cliente</text><ellipse cx="100.6011" cy="242.1202" fill="#FEFECE" filter="url(#f19cp57obyqu2y)" rx="68.6011" ry="16.1202" style="stroke:#A80036;stroke-width:1.5;"/><text fill="#000000" font-family="sans-serif" font-size="14" lengthAdjust="spacing" textLength="89" x="53.1011" y="245.8678">Editar cliente</text><ellipse cx="426.7318" cy="61.2464" fill="#FEFECE" filter="url(#f19cp57obyqu2y)" rx="89.2318" ry="20.2464" style="stroke:#A80036;stroke-width:1.5;"/><text fill="#000000" font-family="sans-serif" font-size="14" lengthAdjust="spacing" textLength="140" x="356.7318" y="64.093">Pesquisar advogado</text><ellipse cx="426.5271" cy="175.1054" fill="#FEFECE" filter="url(#f19cp57obyqu2y)" rx="81.0271" ry="18.6054" style="stroke:#A80036;stroke-width:1.5;"/><text fill="#000000" font-family="sans-serif" font-size="14" lengthAdjust="spacing" textLength="121" x="364.7415" y="178.3718">Realizar pergunta</text><ellipse cx="426.5233" cy="284.9047" fill="#FEFECE" filter="url(#f19cp57obyqu2y)" rx="67.5233" ry="15.9047" style="stroke:#A80036;stroke-width:1.5;"/><text fill="#000000" font-family="sans-serif" font-size="14" lengthAdjust="spacing" textLength="86" x="380.5233" y="288.6522">Acessar sala</text><ellipse cx="100.464" cy="92.1928" fill="#FEFECE" filter="url(#f19cp57obyqu2y)" rx="68.964" ry="16.1928" style="stroke:#A80036;stroke-width:1.5;"/><text fill="#000000" font-family="sans-serif" font-size="14" lengthAdjust="spacing" textLength="90" x="52.464" y="95.9404">Gerar extrato</text><!--MD5=[4eea9e561cff3d3abdfefda2fadd280b]
entity cliente--><ellipse cx="253.5" cy="144" fill="#FEFECE" filter="url(#f19cp57obyqu2y)" rx="8" ry="8" style="stroke:#A80036;stroke-width:1.5;"/><path d="M253.5,152 L253.5,179 M240.5,160 L266.5,160 M253.5,179 L240.5,194 M253.5,179 L266.5,194 " fill="none" filter="url(#f19cp57obyqu2y)" style="stroke:#A80036;stroke-width:1.5;"/><text fill="#000000" font-family="sans-serif" font-size="14" lengthAdjust="spacing" textLength="48" x="229.5" y="212.4951">Cliente</text><!--MD5=[7ccc180280a31d43e0887ba32ee11705]
link criarCliente to cliente--><path d="M166.85,175 C189.17,175 212.69,175 229.43,175 " fill="none" id="criarCliente-cliente" style="stroke:#A80036;stroke-width:1.0;"/><!--MD5=[411a86c87c75dc8aa215d64e365a01e8]
link editarCliente to cliente--><path d="M140.76,228.88 C157.14,223.03 176.22,215.72 193,208 C205.34,202.32 218.6,195.09 229.46,188.84 " fill="none" id="editarCliente-cliente" style="stroke:#A80036;stroke-width:1.0;"/><!--MD5=[a9256c3e72e383c4a398b4a4534c1ad2]
link cliente to pesquisarAdvogado--><path d="M277.56,159.63 C308.56,138.96 363.62,102.25 397.12,79.92 " fill="none" id="cliente-pesquisarAdvogado" style="stroke:#A80036;stroke-width:1.0;"/><!--MD5=[d5b6fd5e98eec70d0301eee91fd36196]
link cliente to realizarPergunta--><path d="M277.56,175 C295.16,175 320.51,175 345.27,175 " fill="none" id="cliente-realizarPergunta" style="stroke:#A80036;stroke-width:1.0;"/><!--MD5=[86755ad71df3ad881b53f91159e78729]
link cliente to acessarSala--><path d="M277.56,189.84 C310.2,210.83 369.52,248.99 402.26,270.05 " fill="none" id="cliente-acessarSala" style="stroke:#A80036;stroke-width:1.0;"/><!--MD5=[5571e75a3ced543903d018cc89921dba]
link gerarExtrato to cliente--><path d="M128.5,106.84 C157.17,122.6 202.03,147.26 229.2,162.19 " fill="none" id="gerarExtrato-cliente" style="stroke:#A80036;stroke-width:1.0;"/><!--MD5=[d0ecfd755f5c4b76d925ec07d9da27cf]
@startuml cliente

left to right direction

package Cliente {
    usecase "Criar cliente" as criarCliente
    usecase "Editar cliente" as editarCliente
}

package Advogado {
    usecase "Pesquisar advogado" as pesquisarAdvogado    
}

package Pergunta {
    usecase "Realizar pergunta" as realizarPergunta
}

package Sala {
    usecase "Acessar sala" as acessarSala
}

usecase "Gerar extrato" as gerarExtrato

actor "Cliente" as cliente

criarCliente - - cliente
editarCliente - - cliente
cliente - - pesquisarAdvogado
cliente - - realizarPergunta
cliente - - acessarSala
gerarExtrato - - cliente

@enduml

PlantUML version 1.2021.14(Fri Nov 12 13:46:50 BRT 2021)
(GPL source distribution)
Java Runtime: OpenJDK Runtime Environment
JVM: OpenJDK 64-Bit Server VM
Default Encoding: UTF-8
Language: pt
Country: BR
--></g></svg>