<?xml version="1.0" encoding="UTF-8" standalone="no"?><svg xmlns="http://www.w3.org/2000/svg" xmlns:xlink="http://www.w3.org/1999/xlink" contentScriptType="application/ecmascript" contentStyleType="text/css" height="647px" preserveAspectRatio="none" style="width:575px;height:647px;background:#FFFFFF;" version="1.1" viewBox="0 0 575 647" width="575px" zoomAndPan="magnify"><defs><filter height="300%" id="fpyurgqq91afe" width="300%" x="-1" y="-1"><feGaussianBlur result="blurOut" stdDeviation="2.0"/><feColorMatrix in="blurOut" result="blurOut2" type="matrix" values="0 0 0 0 0 0 0 0 0 0 0 0 0 0 0 0 0 0 .4 0"/><feOffset dx="4.0" dy="4.0" in="blurOut2" result="blurOut3"/><feBlend in="SourceGraphic" in2="blurOut3" mode="normal"/></filter></defs><g><!--MD5=[eeac6d26af6e255ad00712f50927ffda]
cluster Cliente--><polygon fill="#FFFFFF" filter="url(#fpyurgqq91afe)" points="26,37,87,37,94,59.2969,236,59.2969,236,197,26,197,26,37" style="stroke:#000000;stroke-width:1.5;"/><line style="stroke:#000000;stroke-width:1.5;" x1="26" x2="94" y1="59.2969" y2="59.2969"/><text fill="#000000" font-family="sans-serif" font-size="14" font-weight="bold" lengthAdjust="spacing" textLength="55" x="30" y="51.9951">Cliente</text><!--MD5=[a02a2c85d289fdf60e396b79d01ab1db]
cluster Advogado--><polygon fill="#FFFFFF" filter="url(#fpyurgqq91afe)" points="16,221,101,221,108,243.2969,246,243.2969,246,387,16,387,16,221" style="stroke:#000000;stroke-width:1.5;"/><line style="stroke:#000000;stroke-width:1.5;" x1="16" x2="108" y1="243.2969" y2="243.2969"/><text fill="#000000" font-family="sans-serif" font-size="14" font-weight="bold" lengthAdjust="spacing" textLength="79" x="20" y="235.9951">Advogado</text><!--MD5=[945b1f9c868be3f3aea08e0aec430894]
cluster Pergunta--><polygon fill="#FFFFFF" filter="url(#fpyurgqq91afe)" points="36.5,411,114.5,411,121.5,433.2969,225.5,433.2969,225.5,640,36.5,640,36.5,411" style="stroke:#000000;stroke-width:1.5;"/><line style="stroke:#000000;stroke-width:1.5;" x1="36.5" x2="121.5" y1="433.2969" y2="433.2969"/><text fill="#000000" font-family="sans-serif" font-size="14" font-weight="bold" lengthAdjust="spacing" textLength="72" x="40.5" y="425.9951">Pergunta</text><!--MD5=[52e11059ea0351adc87fd0021461bf5b]
cluster Sala--><polygon fill="#FFFFFF" filter="url(#fpyurgqq91afe)" points="390,6,428,6,435,28.2969,549,28.2969,549,217,390,217,390,6" style="stroke:#000000;stroke-width:1.5;"/><line style="stroke:#000000;stroke-width:1.5;" x1="390" x2="435" y1="28.2969" y2="28.2969"/><text fill="#000000" font-family="sans-serif" font-size="14" font-weight="bold" lengthAdjust="spacing" textLength="32" x="394" y="20.9951">Sala</text><!--MD5=[013d70d16741779b6fb94ed761a6f972]
cluster Artigo--><polygon fill="#FFFFFF" filter="url(#fpyurgqq91afe)" points="381,241,435,241,442,263.2969,558,263.2969,558,393,381,393,381,241" style="stroke:#000000;stroke-width:1.5;"/><line style="stroke:#000000;stroke-width:1.5;" x1="381" x2="442" y1="263.2969" y2="263.2969"/><text fill="#000000" font-family="sans-serif" font-size="14" font-weight="bold" lengthAdjust="spacing" textLength="48" x="385" y="255.9951">Artigo</text><!--MD5=[bc0a963721474366840cd59b0732dd2f]
cluster Plano--><polygon fill="#FFFFFF" filter="url(#fpyurgqq91afe)" points="386,417,435,417,442,439.2969,553,439.2969,553,632,386,632,386,417" style="stroke:#000000;stroke-width:1.5;"/><line style="stroke:#000000;stroke-width:1.5;" x1="386" x2="442" y1="439.2969" y2="439.2969"/><text fill="#000000" font-family="sans-serif" font-size="14" font-weight="bold" lengthAdjust="spacing" textLength="43" x="390" y="431.9951">Plano</text><ellipse cx="131.2318" cy="92.2464" fill="#FEFECE" filter="url(#fpyurgqq91afe)" rx="89.2318" ry="20.2464" style="stroke:#A80036;stroke-width:1.5;"/><text fill="#000000" font-family="sans-serif" font-size="14" lengthAdjust="spacing" textLength="140" x="61.2318" y="95.093">Ativar/Inativar cliente</text><ellipse cx="130.9333" cy="163.9867" fill="#FEFECE" filter="url(#fpyurgqq91afe)" rx="70.4333" ry="16.4867" style="stroke:#A80036;stroke-width:1.5;"/><text fill="#000000" font-family="sans-serif" font-size="14" lengthAdjust="spacing" textLength="94" x="80.9333" y="167.7342">Excluir cliente</text><ellipse cx="131.0673" cy="278.2135" fill="#FEFECE" filter="url(#fpyurgqq91afe)" rx="99.0673" ry="22.2135" style="stroke:#A80036;stroke-width:1.5;"/><text fill="#000000" font-family="sans-serif" font-size="14" lengthAdjust="spacing" textLength="162" x="50.0673" y="281.0601">Ativar/Inativar advogado</text><ellipse cx="130.9652" cy="353.193" fill="#FEFECE" filter="url(#fpyurgqq91afe)" rx="78.9652" ry="18.193" style="stroke:#A80036;stroke-width:1.5;"/><text fill="#000000" font-family="sans-serif" font-size="14" lengthAdjust="spacing" textLength="116" x="70.9" y="356.6886">Excluir advogado</text><ellipse cx="130.9948" cy="463.899" fill="#FEFECE" filter="url(#fpyurgqq91afe)" rx="74.9948" ry="17.399" style="stroke:#A80036;stroke-width:1.5;"/><text fill="#000000" font-family="sans-serif" font-size="14" lengthAdjust="spacing" textLength="106" x="74.9948" y="467.6465">Editar pergunta</text><ellipse cx="130.9563" cy="534.7913" fill="#FEFECE" filter="url(#fpyurgqq91afe)" rx="76.9563" ry="17.7913" style="stroke:#A80036;stroke-width:1.5;"/><text fill="#000000" font-family="sans-serif" font-size="14" lengthAdjust="spacing" textLength="111" x="72.5675" y="538.5101">Excluir pergunta</text><ellipse cx="131.0591" cy="606.1118" fill="#FEFECE" filter="url(#fpyurgqq91afe)" rx="78.5591" ry="18.1118" style="stroke:#A80036;stroke-width:1.5;"/><text fill="#000000" font-family="sans-serif" font-size="14" lengthAdjust="spacing" textLength="115" x="71.3328" y="609.6525">Auditar pergunta</text><ellipse cx="469.3333" cy="56.2455" fill="#FEFECE" filter="url(#fpyurgqq91afe)" rx="56.3333" ry="14.7455" style="stroke:#A80036;stroke-width:1.5;"/><text fill="#000000" font-family="sans-serif" font-size="14" lengthAdjust="spacing" textLength="62" x="435.3333" y="59.9931">Criar sala</text><ellipse cx="469.5868" cy="120.8174" fill="#FEFECE" filter="url(#fpyurgqq91afe)" rx="62.0868" ry="14.8174" style="stroke:#A80036;stroke-width:1.5;"/><text fill="#000000" font-family="sans-serif" font-size="14" lengthAdjust="spacing" textLength="70" x="431.5868" y="124.5649">Editar sala</text><ellipse cx="469.7248" cy="186.145" fill="#FEFECE" filter="url(#fpyurgqq91afe)" rx="63.7248" ry="15.145" style="stroke:#A80036;stroke-width:1.5;"/><text fill="#000000" font-family="sans-serif" font-size="14" lengthAdjust="spacing" textLength="75" x="429.2248" y="189.8925">Excluir sala</text><ellipse cx="469.3807" cy="291.9761" fill="#FEFECE" filter="url(#fpyurgqq91afe)" rx="67.8807" ry="15.9761" style="stroke:#A80036;stroke-width:1.5;"/><text fill="#000000" font-family="sans-serif" font-size="14" lengthAdjust="spacing" textLength="87" x="422.8807" y="295.7237">Excluir artigo</text><ellipse cx="469.3073" cy="359.8615" fill="#FEFECE" filter="url(#fpyurgqq91afe)" rx="72.3073" ry="16.8615" style="stroke:#A80036;stroke-width:1.5;"/><text fill="#000000" font-family="sans-serif" font-size="14" lengthAdjust="spacing" textLength="99" x="416.8073" y="363.609">Sinalizar artigo</text><ellipse cx="469.5625" cy="467.0125" fill="#FEFECE" filter="url(#fpyurgqq91afe)" rx="63.0625" ry="15.0125" style="stroke:#A80036;stroke-width:1.5;"/><text fill="#000000" font-family="sans-serif" font-size="14" lengthAdjust="spacing" textLength="73" x="430.0625" y="470.7601">Criar plano</text><ellipse cx="469.2655" cy="533.0531" fill="#FEFECE" filter="url(#fpyurgqq91afe)" rx="65.7655" ry="15.5531" style="stroke:#A80036;stroke-width:1.5;"/><text fill="#000000" font-family="sans-serif" font-size="14" lengthAdjust="spacing" textLength="81" x="425.7655" y="536.8007">Editar plano</text><ellipse cx="469.5233" cy="599.9047" fill="#FEFECE" filter="url(#fpyurgqq91afe)" rx="67.5233" ry="15.9047" style="stroke:#A80036;stroke-width:1.5;"/><text fill="#000000" font-family="sans-serif" font-size="14" lengthAdjust="spacing" textLength="86" x="423.5233" y="603.6522">Excluir plano</text><!--MD5=[36acd0edb6b21995f9bc952d027e2872]
entity gestor--><ellipse cx="313.5" cy="322" fill="#FEFECE" filter="url(#fpyurgqq91afe)" rx="8" ry="8" style="stroke:#A80036;stroke-width:1.5;"/><path d="M313.5,330 L313.5,357 M300.5,338 L326.5,338 M313.5,357 L300.5,372 M313.5,357 L326.5,372 " fill="none" filter="url(#fpyurgqq91afe)" style="stroke:#A80036;stroke-width:1.5;"/><text fill="#000000" font-family="sans-serif" font-size="14" lengthAdjust="spacing" textLength="47" x="290" y="390.4951">Gestor</text><!--MD5=[c12c7d077a1fbd70225ec1c16dcb2ebe]
link ativarInativarCliente to gestor--><path d="M207.05,102.57 C224.4,108.22 241.43,116.85 254,130 C301.42,179.63 311.56,262.84 313.09,312.37 " fill="none" id="ativarInativarCliente-gestor" style="stroke:#A80036;stroke-width:1.0;"/><!--MD5=[b7eea3f31a7afdf0c6d291c3f12df653]
link excluirCliente to gestor--><path d="M165.17,178.55 C191.83,191.56 228.86,212.78 254,240 C273.26,260.85 287.92,289.24 297.75,312.35 " fill="none" id="excluirCliente-gestor" style="stroke:#A80036;stroke-width:1.0;"/><!--MD5=[b6d0130342faf78a533ebf532f0b07e2]
link ativarInativarAdvogado to gestor--><path d="M194.85,294.9 C214.2,300.94 235.31,308.42 254,317 C266.35,322.67 279.31,330.43 289.87,337.3 " fill="none" id="ativarInativarAdvogado-gestor" style="stroke:#A80036;stroke-width:1.0;"/><!--MD5=[06477601a82a6e2b68732563e61d034b]
link excluirAdvogado to gestor--><path d="M210.12,353 C239.08,353 269.75,353 289.88,353 " fill="none" id="excluirAdvogado-gestor" style="stroke:#A80036;stroke-width:1.0;"/><!--MD5=[07062fdf5be9f8435d7b2469448e625a]
link editarPergunta to gestor--><path d="M158.63,447.62 C194.13,425.79 256.35,387.53 289.76,366.98 " fill="none" id="editarPergunta-gestor" style="stroke:#A80036;stroke-width:1.0;"/><!--MD5=[cda4cc81f2247b1d254d369ad0c0648b]
link excluirPergunta to gestor--><path d="M199.24,526.53 C218.77,521.26 238.89,512.75 254,499 C284.19,471.52 299.07,426.35 306.23,393.51 " fill="none" id="excluirPergunta-gestor" style="stroke:#A80036;stroke-width:1.0;"/><!--MD5=[98c635718fdc53b3986f5b1c7f95aae7]
link auditarPergunta to gestor--><path d="M201.85,598.16 C220.91,592.89 240.11,584.22 254,570 C300.48,522.41 311,441.95 312.84,393.52 " fill="none" id="auditarPergunta-gestor" style="stroke:#A80036;stroke-width:1.0;"/><!--MD5=[81393f3aed0d45b43f84dbc410b37cb1]
link gestor to criarSala--><path d="M318.57,312.5 C325.95,246.72 343.58,120.71 373,88 C384.81,74.87 402.16,67.12 418.85,62.54 " fill="none" id="gestor-criarSala" style="stroke:#A80036;stroke-width:1.0;"/><!--MD5=[86aaac1cf7bb63eedf93ab70838163a1]
link gestor to editarSala--><path d="M315.67,312.27 C319.13,267.53 331.37,196.28 373,153 C384.52,141.03 400.64,133.54 416.36,128.85 " fill="none" id="gestor-editarSala" style="stroke:#A80036;stroke-width:1.0;"/><!--MD5=[1871db5c02198419758371f2296c1260]
link gestor to excluirSala--><path d="M335.85,312.39 C345.89,295.25 358.78,275.68 373,260 C394.98,235.76 425.63,213.58 446.23,199.96 " fill="none" id="gestor-excluirSala" style="stroke:#A80036;stroke-width:1.0;"/><!--MD5=[f8665475e080f57699370ef8a2ad3106]
link gestor to excluirArtigo--><path d="M337.01,341.49 C347.77,336.17 360.92,329.96 373,325 C390.85,317.67 410.99,310.55 428.16,304.81 " fill="none" id="gestor-excluirArtigo" style="stroke:#A80036;stroke-width:1.0;"/><!--MD5=[b79dee16eabcae8af2a947a94522d4be]
link gestor to sinalizarArtigo--><path d="M337.22,354.03 C353.45,354.77 376.23,355.81 398.27,356.81 " fill="none" id="gestor-sinalizarArtigo" style="stroke:#A80036;stroke-width:1.0;"/><!--MD5=[d86c2188ca0091b5801e2a8bc0ca979c]
link gestor to criarPlano--><path d="M337.22,369.82 C367.51,392.24 420.59,431.54 449.1,452.64 " fill="none" id="gestor-criarPlano" style="stroke:#A80036;stroke-width:1.0;"/><!--MD5=[c7dd4ea2278754ec4d83c7d686802f0d]
link gestor to editarPlano--><path d="M321.32,393.74 C328.77,426.27 343.77,470.89 373,499 C385.05,510.59 401.31,518.26 416.99,523.32 " fill="none" id="gestor-editarPlano" style="stroke:#A80036;stroke-width:1.0;"/><!--MD5=[5ff8861b48b89625909bc50ad1cc4cc9]
link gestor to excluirPlano--><path d="M314.9,393.63 C317.53,440.89 328.9,518.51 373,566 C384.02,577.86 399.45,585.59 414.7,590.62 " fill="none" id="gestor-excluirPlano" style="stroke:#A80036;stroke-width:1.0;"/><!--MD5=[b747c355c5c27cdf9d15e1ac465cae67]
@startuml gestor

left to right direction

package Cliente {
    usecase "Ativar/Inativar cliente" as ativarInativarCliente
    usecase "Excluir cliente" as excluirCliente
}

package Advogado {
    usecase "Ativar/Inativar advogado" as ativarInativarAdvogado
    usecase "Excluir advogado" as excluirAdvogado
}

package Pergunta {
    usecase "Editar pergunta" as editarPergunta
    usecase "Excluir pergunta" as excluirPergunta
    usecase "Auditar pergunta" as auditarPergunta
}

package Sala {
    usecase "Criar sala" as criarSala
    usecase "Editar sala" as editarSala
    usecase "Excluir sala" as excluirSala
}

package Artigo {
    usecase "Excluir artigo" as excluirArtigo
    usecase "Sinalizar artigo" as sinalizarArtigo
}

package Plano {
    usecase "Criar plano" as criarPlano
    usecase "Editar plano" as editarPlano
    usecase "Excluir plano" as excluirPlano
}

actor "Gestor" as gestor

ativarInativarCliente - - gestor
excluirCliente - - gestor
ativarInativarAdvogado - - gestor
excluirAdvogado - - gestor
editarPergunta - - gestor
excluirPergunta - - gestor
auditarPergunta - - gestor
gestor - - criarSala
gestor - - editarSala
gestor - - excluirSala
gestor - - excluirArtigo
gestor - - sinalizarArtigo
gestor - - criarPlano
gestor - - editarPlano
gestor - - excluirPlano

@enduml

PlantUML version 1.2021.14(Fri Nov 12 13:46:50 BRT 2021)
(GPL source distribution)
Java Runtime: OpenJDK Runtime Environment
JVM: OpenJDK 64-Bit Server VM
Default Encoding: UTF-8
Language: pt
Country: BR
--></g></svg>