<?xml version="1.0" encoding="UTF-8" standalone="no"?><svg xmlns="http://www.w3.org/2000/svg" xmlns:xlink="http://www.w3.org/1999/xlink" contentScriptType="application/ecmascript" contentStyleType="text/css" height="365px" preserveAspectRatio="none" style="width:770px;height:365px;background:#FFFFFF;" version="1.1" viewBox="0 0 770 365" width="770px" zoomAndPan="magnify"><defs><filter height="300%" id="fl85do1xrcpdu" width="300%" x="-1" y="-1"><feGaussianBlur result="blurOut" stdDeviation="2.0"/><feColorMatrix in="blurOut" result="blurOut2" type="matrix" values="0 0 0 0 0 0 0 0 0 0 0 0 0 0 0 0 0 0 .4 0"/><feOffset dx="4.0" dy="4.0" in="blurOut2" result="blurOut3"/><feBlend in="SourceGraphic" in2="blurOut3" mode="normal"/></filter></defs><g><!--MD5=[a6f6d624c21ba991f399422797d70961]
cluster Sessão--><polygon fill="#FFFFFF" filter="url(#fl85do1xrcpdu)" points="16,8,79,8,86,30.2969,362,30.2969,362,92,16,92,16,8" style="stroke:#000000;stroke-width:1.5;"/><line style="stroke:#000000;stroke-width:1.5;" x1="16" x2="86" y1="30.2969" y2="30.2969"/><text fill="#000000" font-family="sans-serif" font-size="14" font-weight="bold" lengthAdjust="spacing" textLength="57" x="20" y="22.9951">Sessão</text><!--MD5=[639e0a5b542aa88109df402b3de63655]
cluster Senha--><polygon fill="#FFFFFF" filter="url(#fl85do1xrcpdu)" points="386,6,441,6,448,28.2969,753,28.2969,753,94,386,94,386,6" style="stroke:#000000;stroke-width:1.5;"/><line style="stroke:#000000;stroke-width:1.5;" x1="386" x2="448" y1="28.2969" y2="28.2969"/><text fill="#000000" font-family="sans-serif" font-size="14" font-weight="bold" lengthAdjust="spacing" textLength="49" x="390" y="20.9951">Senha</text><ellipse cx="276.1952" cy="59.339" fill="#FEFECE" filter="url(#fl85do1xrcpdu)" rx="69.6952" ry="16.339" style="stroke:#A80036;stroke-width:1.5;"/><text fill="#000000" font-family="sans-serif" font-size="14" lengthAdjust="spacing" textLength="92" x="227.1952" y="63.0866">Efetuar logon</text><ellipse cx="101.8288" cy="59.2658" fill="#FEFECE" filter="url(#fl85do1xrcpdu)" rx="69.3288" ry="16.2658" style="stroke:#A80036;stroke-width:1.5;"/><text fill="#000000" font-family="sans-serif" font-size="14" lengthAdjust="spacing" textLength="91" x="53.3288" y="63.0133">Efetuar logoff</text><ellipse cx="666.8288" cy="59.2658" fill="#FEFECE" filter="url(#fl85do1xrcpdu)" rx="69.3288" ry="16.2658" style="stroke:#A80036;stroke-width:1.5;"/><text fill="#000000" font-family="sans-serif" font-size="14" lengthAdjust="spacing" textLength="91" x="618.3288" y="63.0133">Alterar senha</text><ellipse cx="482.1963" cy="59.4393" fill="#FEFECE" filter="url(#fl85do1xrcpdu)" rx="80.1963" ry="18.4393" style="stroke:#A80036;stroke-width:1.5;"/><text fill="#000000" font-family="sans-serif" font-size="14" lengthAdjust="spacing" textLength="119" x="421.1039" y="62.7979">Recuperar senha</text><!--MD5=[add1f11cc0a9945b597266d37d500565]
entity usuario--><ellipse cx="379" cy="147.5" fill="#FEFECE" filter="url(#fl85do1xrcpdu)" rx="8" ry="8" style="stroke:#A80036;stroke-width:1.5;"/><path d="M379,155.5 L379,182.5 M366,163.5 L392,163.5 M379,182.5 L366,197.5 M379,182.5 L392,197.5 " fill="none" filter="url(#fl85do1xrcpdu)" style="stroke:#A80036;stroke-width:1.5;"/><text fill="#000000" font-family="sans-serif" font-size="14" lengthAdjust="spacing" textLength="52" x="353" y="215.9951">Usuário</text><!--MD5=[4eea9e561cff3d3abdfefda2fadd280b]
entity cliente--><ellipse cx="239" cy="288.5" fill="#FEFECE" filter="url(#fl85do1xrcpdu)" rx="8" ry="8" style="stroke:#A80036;stroke-width:1.5;"/><path d="M239,296.5 L239,323.5 M226,304.5 L252,304.5 M239,323.5 L226,338.5 M239,323.5 L252,338.5 " fill="none" filter="url(#fl85do1xrcpdu)" style="stroke:#A80036;stroke-width:1.5;"/><text fill="#000000" font-family="sans-serif" font-size="14" lengthAdjust="spacing" textLength="48" x="215" y="356.9951">Cliente</text><!--MD5=[e2467f5f4384106b775860ee09f7fdf8]
entity advogado--><ellipse cx="333" cy="288.5" fill="#FEFECE" filter="url(#fl85do1xrcpdu)" rx="8" ry="8" style="stroke:#A80036;stroke-width:1.5;"/><path d="M333,296.5 L333,323.5 M320,304.5 L346,304.5 M333,323.5 L320,338.5 M333,323.5 L346,338.5 " fill="none" filter="url(#fl85do1xrcpdu)" style="stroke:#A80036;stroke-width:1.5;"/><text fill="#000000" font-family="sans-serif" font-size="14" lengthAdjust="spacing" textLength="69" x="298.5" y="356.9951">Advogado</text><!--MD5=[36acd0edb6b21995f9bc952d027e2872]
entity gestor--><ellipse cx="426" cy="288.5" fill="#FEFECE" filter="url(#fl85do1xrcpdu)" rx="8" ry="8" style="stroke:#A80036;stroke-width:1.5;"/><path d="M426,296.5 L426,323.5 M413,304.5 L439,304.5 M426,323.5 L413,338.5 M426,323.5 L439,338.5 " fill="none" filter="url(#fl85do1xrcpdu)" style="stroke:#A80036;stroke-width:1.5;"/><text fill="#000000" font-family="sans-serif" font-size="14" lengthAdjust="spacing" textLength="47" x="402.5" y="356.9951">Gestor</text><!--MD5=[825b4a1077544aa6f73991bc9e521f36]
entity estagiario--><ellipse cx="518" cy="288.5" fill="#FEFECE" filter="url(#fl85do1xrcpdu)" rx="8" ry="8" style="stroke:#A80036;stroke-width:1.5;"/><path d="M518,296.5 L518,323.5 M505,304.5 L531,304.5 M518,323.5 L505,338.5 M518,323.5 L531,338.5 " fill="none" filter="url(#fl85do1xrcpdu)" style="stroke:#A80036;stroke-width:1.5;"/><text fill="#000000" font-family="sans-serif" font-size="14" lengthAdjust="spacing" textLength="67" x="484.5" y="356.9951">Estagiário</text><!--MD5=[808ab038725c357ed83eaf65933470b1]
reverse link usuario to cliente--><path d="M338.75,219.46 C314.43,243.61 284.22,273.6 263.46,294.22 " fill="none" id="usuario-backto-cliente" style="stroke:#A80036;stroke-width:1.0;"/><polygon fill="none" points="333.87,214.44,353,205.32,343.73,224.38,333.87,214.44" style="stroke:#A80036;stroke-width:1.0;"/><!--MD5=[905255346d512cb99e5e57f6902d5cdb]
reverse link usuario to advogado--><path d="M359.46,238.53 C354.98,252.07 350.32,266.16 346.18,278.66 " fill="none" id="usuario-backto-advogado" style="stroke:#A80036;stroke-width:1.0;"/><polygon fill="none" points="352.89,236.12,365.82,219.33,366.18,240.52,352.89,236.12" style="stroke:#A80036;stroke-width:1.0;"/><!--MD5=[544b811c0b21f2813798be2094540099]
reverse link usuario to gestor--><path d="M398.96,238.53 C403.54,252.07 408.3,266.16 412.53,278.66 " fill="none" id="usuario-backto-gestor" style="stroke:#A80036;stroke-width:1.0;"/><polygon fill="none" points="392.24,240.52,392.47,219.33,405.51,236.04,392.24,240.52" style="stroke:#A80036;stroke-width:1.0;"/><!--MD5=[70ed51ea67ae95e5a3ef6b0848322ee4]
reverse link usuario to estagiario--><path d="M419.29,219.79 C439.92,240.42 464.74,265.24 484.34,284.84 " fill="none" id="usuario-backto-estagiario" style="stroke:#A80036;stroke-width:1.0;"/><polygon fill="none" points="414.34,224.74,405.14,205.64,424.24,214.84,414.34,224.74" style="stroke:#A80036;stroke-width:1.0;"/><!--MD5=[54dfc20a6ecf70b5673d0f8cb4973b96]
link efetuarLogon to usuario--><path d="M289.47,75.8 C305.5,94.01 332.64,124.84 352.85,147.79 " fill="none" id="efetuarLogon-usuario" style="stroke:#A80036;stroke-width:1.0;"/><!--MD5=[98e5fad58415754d2682b02c8d9ee7a4]
link efetuarLogoff to usuario--><path d="M130.38,74.63 C147.28,82.89 169.22,93.36 189,102 C246.9,127.28 316.14,153.91 352.96,167.78 " fill="none" id="efetuarLogoff-usuario" style="stroke:#A80036;stroke-width:1.0;"/><!--MD5=[e71eecf9510cdf5ce1f2718c5993b729]
link alterarSenha to usuario--><path d="M638.68,74.77 C621.8,83.08 599.86,93.55 580,102 C518.26,128.27 443.97,154.92 405.3,168.43 " fill="none" id="alterarSenha-usuario" style="stroke:#A80036;stroke-width:1.0;"/><!--MD5=[d99ab52c35a997c6ceeff6e7a003b8f3]
link recuperarSenha to usuario--><path d="M466.8,77.76 C450.57,96.2 424.56,125.75 405.05,147.91 " fill="none" id="recuperarSenha-usuario" style="stroke:#A80036;stroke-width:1.0;"/><!--MD5=[9efe2474d07e1aceb5b561d52466a730]
@startuml usuario

top to bottom direction

package Sessão {
    usecase "Efetuar logon" as efetuarLogon
    usecase "Efetuar logoff" as efetuarLogoff
}

package Senha {
    usecase "Alterar senha" as alterarSenha
    usecase "Recuperar senha" as recuperarSenha    
}

actor "Usuário" as usuario
actor "Cliente" as cliente
actor "Advogado" as advogado
actor "Gestor" as gestor
actor "Estagiário" as estagiario

usuario <|- - cliente
usuario <|- - advogado
usuario <|- - gestor
usuario <|- - estagiario

efetuarLogon - - usuario
efetuarLogoff - - usuario
alterarSenha - - usuario
recuperarSenha - - usuario

@enduml

PlantUML version 1.2021.14(Fri Nov 12 13:46:50 BRT 2021)
(GPL source distribution)
Java Runtime: OpenJDK Runtime Environment
JVM: OpenJDK 64-Bit Server VM
Default Encoding: UTF-8
Language: pt
Country: BR
--></g></svg>